<?xml version="1.0" encoding="UTF-8" standalone="no"?>
<svg width="251px" height="40px" viewBox="0 0 251 40" version="1.1" xmlns="http://www.w3.org/2000/svg" xmlns:xlink="http://www.w3.org/1999/xlink" xmlns:sketch="http://www.bohemiancoding.com/sketch/ns">
    <!-- Generator: Sketch 3.2.2 (9983) - http://www.bohemiancoding.com/sketch -->
    <title>Artboard 6</title>
    <desc>Created with Sketch.</desc>
    <defs>
        <path id="path-1" d="M0,0.401526465 L249.908696,0.401526465 L249.908696,38.7573808 L0,38.7573808"></path>
    </defs>
    <g id="Welcome" stroke="none" stroke-width="1" fill="none" fill-rule="evenodd" sketch:type="MSPage">
        <g id="Artboard-6" sketch:type="MSArtboardGroup">
            <g id="Logo-Full-Horiz-2" sketch:type="MSLayerGroup">
                <g transform="translate(0.000000, 0.840670)">
                    <g id="Group-3">
                        <mask id="mask-2" sketch:name="Clip 2" fill="white">
                            <use xlink:href="#path-1"></use>
                        </mask>
                        <g id="Clip-2"></g>
                        <path d="M16.5744453,31.1209365 C17.1460137,29.6419549 19.505729,29.3295704 21.3848798,29.3295704 C22.8656889,29.3295704 24.3249445,29.5132804 25.3116184,29.6706353 L25.3116184,29.690014 C25.3156098,29.690014 25.3810688,29.690014 25.4800555,29.6977655 C25.8137364,29.7520258 26.0444393,29.7993099 26.1354432,29.8171382 L26.149014,29.8202388 C26.5776903,29.9357358 27.2099279,30.1853334 27.8166206,30.7155343 C28.1758466,31.028694 28.2596659,31.0527235 28.3386957,31.0527235 L28.4608325,31.0449721 L28.5071327,30.9527295 C28.5558278,30.8542858 28.5981366,30.7682444 27.7767066,29.7434992 C29.1689067,29.7659785 30.9163413,29.3931325 32.3125328,29.0954758 C33.2449237,28.8954877 34.0503881,28.7241801 34.4902403,28.7241801 C34.689012,28.7241801 34.7345139,28.760612 34.7313208,28.7559612 C35.1759627,29.5737419 33.2768549,33.3936693 31.8950324,35.7563193 C31.3985024,36.542319 30.6704711,36.8438514 29.6143469,36.6911473 L29.5736346,36.6864964 C28.0217785,36.4679048 26.6806684,36.2818694 25.1272158,35.9609583 C24.0080274,35.7276388 18.250833,33.7866692 17.948285,33.6355154 C17.8644656,33.6037344 15.9038902,32.8526163 16.5744453,31.1209365 M35.5575405,14.3854995 C35.3723395,15.3149015 35.1991128,16.5442856 34.997148,17.9674566 C34.5860339,20.8742602 34.0727399,24.491099 33.2289581,26.9653702 C33.1084178,27.3149617 31.8056251,27.6916835 29.9097104,27.6916835 C28.5095275,27.6916835 26.7006254,27.4816185 25.8560453,27.1103228 C25.2166231,20.7851182 25.3060305,17.622516 25.6987841,13.3545532 C25.7474792,12.8220268 25.795376,12.3081039 25.83529,11.8267372 L25.8488608,11.6724829 L25.6908013,11.6500036 L25.6476942,11.646903 C25.5447161,11.646903 25.4497208,11.6949621 25.3651032,11.7895301 C24.4630469,12.7925712 24.5684199,24.9771165 24.5827889,25.0592822 C24.5827889,26.6762401 24.2147819,26.7987134 24.2147819,26.7987134 C23.2560478,27.3010091 21.7704489,27.6250208 20.4205577,27.6250208 C19.4354803,27.6250208 18.630016,27.4467368 18.1454601,27.1227251 C16.8251052,22.6276441 16.787586,16.3125165 16.8107362,12.1251691 L16.8139293,11.6662817 L16.6630544,11.6500036 L16.6247369,11.646903 C16.5496986,11.646903 16.3812616,11.6422521 16.3357596,11.7918556 C16.0012804,12.8793877 16.6909942,25.1724537 16.6909942,25.1724537 C16.6909942,26.7467785 16.1441725,26.9335891 16.1441725,26.9335891 C15.1638848,27.4165061 13.3573775,27.7157131 12.2796996,27.7157131 C11.5780116,27.7157131 11.0192157,27.5870386 10.6559984,27.3436422 C9.32606416,22.7392654 9.17678582,19.5782134 9.09775612,15.1094874 L9.10414235,15.0156945 L9.02431437,14.9622093 C8.96843478,14.9242271 8.90856379,14.9048484 8.84709624,14.9048484 C8.77525105,14.9048484 8.60841056,14.907949 8.5788742,15.0622034 C8.37611112,16.1055521 8.60521744,22.327662 9.44820098,26.3638556 C9.44820098,26.3638556 9.16481162,26.7956128 8.32182809,27.1134234 C7.68879216,27.352944 7.09726678,27.473867 6.56321755,27.473867 C2.53429908,27.473867 1.9627307,20.5975325 1.54523033,15.5769014 C1.45662127,14.4994462 1.3720036,13.4816774 1.2610427,12.6491689 C1.12294028,11.6089208 1.34087069,10.73843 1.90685111,10.0601758 C2.81689015,8.97341886 4.59146629,8.34477414 7.31998686,8.13780973 L7.32397826,8.13780973 C7.34074214,9.09279159 7.4493082,9.2687501 7.65446612,9.2687501 C7.83168425,9.2687501 7.92667956,9.08348982 8.03285078,8.7656793 C8.33380229,7.85875659 9.074606,6.55728374 10.1722408,5.86817751 C11.3273518,5.14108905 12.5391406,4.84498266 14.3576221,4.84498266 C14.7391999,4.84498266 15.1543054,4.85660987 15.6476424,4.88218974 L15.7498222,4.88994122 C15.911873,4.91862168 15.9142679,4.99303585 15.9150661,5.03721927 C15.8943109,6.13637859 15.9805251,6.22086968 16.0427909,6.28288149 L16.1138378,6.34024241 L16.1840865,6.34024241 C16.3517252,6.34024241 16.4235704,6.16040816 16.4890294,5.96042008 C16.7285133,5.2217044 17.8053929,4.11014272 18.4041028,3.57141512 C18.5613639,3.43188855 18.7090457,3.29623772 18.858324,3.15050997 C19.5264842,2.50093627 20.241743,2.18622634 21.0448125,2.18622634 C22.0251002,2.18622634 23.054083,2.64046284 24.1445333,3.12027921 C25.2661165,3.61559854 26.4244205,4.12564567 27.7032649,4.24811899 C27.7703204,4.25587047 27.8341828,4.27990005 27.8349811,4.42950354 C27.8198137,4.68530225 27.7727152,4.94420155 27.7312047,5.17442039 C27.6617543,5.55889361 27.62663,5.75113022 27.7280116,5.86972781 C27.7695221,5.91623666 27.8269983,5.94414198 27.8924572,5.94414198 C28.0497183,5.94414198 28.2149623,5.85422485 29.1768895,4.63104192 C30.0047057,3.57761631 31.1390614,3.02028517 32.4554249,3.02028517 C33.3031981,3.02028517 34.2052544,3.25050401 35.0665983,3.68613697 C36.514678,4.38299468 37.18204,6.09219517 37.0495255,8.78815858 C37.0519204,8.81993963 37.0806584,9.63617007 35.5575405,14.3854995 M37.2474989,3.34119628 C35.8888266,1.84826198 33.7654022,1.29170599 30.9339035,1.68470583 C30.339185,1.76532118 29.8809724,1.98468796 29.4762445,2.17692456 C29.1728981,2.32110202 28.8863156,2.45675285 28.5941452,2.50713745 C28.2157606,2.57224985 27.8517449,2.6055812 27.5132743,2.6055812 C26.1577951,2.6055812 25.2972494,2.09708436 24.3864121,1.55758162 C23.8212299,1.223493 23.2360908,0.876226865 22.5240251,0.65996068 C21.9508602,0.486327614 21.4263903,0.401061376 20.917886,0.401061376 C19.465815,0.401061376 18.4575875,1.12039836 17.4828878,1.81648092 C16.9065297,2.22730916 16.311013,2.65364035 15.623694,2.93114319 C14.8214227,3.2551549 13.8044142,3.27298329 12.8201351,3.28848625 C11.7248951,3.30786494 10.5913377,3.32801877 9.67810558,3.75590026 C8.98679521,4.08301255 8.52938085,4.64654487 8.08713381,5.19302394 C7.62173665,5.76663317 7.183481,6.30691106 6.54246227,6.41930747 C3.04200507,7.03399952 0.276763629,7.51846678 0.0412710689,11.3104889 C-0.472022883,24.1430577 3.9608252,29.0722214 4.00712543,29.122606 C6.44028245,31.6480369 13.4372055,32.7952554 14.5803422,32.9146281 C14.9331819,34.3091187 15.9094782,35.1935621 17.6385524,35.6943075 C18.5509863,35.9578577 19.4434631,36.2469877 20.3894248,36.5516207 C21.63075,36.9539223 22.914384,37.3678512 24.232344,37.718993 C25.2110352,37.9794426 26.2304385,38.1484248 27.2155159,38.311981 C27.8501484,38.4181762 28.5063344,38.527472 29.1417652,38.6607974 C29.4459098,38.7259098 29.7460631,38.7576908 30.0366369,38.7576908 C30.2058723,38.7576908 30.3727127,38.7468388 30.5108152,38.7259098 L30.5746776,38.7197086 L30.5834586,38.7150577 C30.6345485,38.7073063 30.6840419,38.6980045 30.7407198,38.6879276 C30.7694578,38.6801761 30.7997925,38.6739749 30.8261357,38.6662234 L30.7782389,38.5088685 L30.8700411,38.6592471 C32.6765484,38.2135372 34.2188251,36.3245025 35.4561589,33.0409772 C36.3677945,30.6209663 36.7653379,28.2986241 36.7693293,28.2761448 C36.7781104,28.2280856 37.6067249,23.4392237 38.6772182,15.8629309 C39.2743315,11.2213469 39.7046043,6.04181058 37.2474989,3.34119628" id="Fill-1" fill="#00ADEF" sketch:type="MSShapeGroup" mask="url(#mask-2)"></path>
                    </g>
                    <path d="M55.2520626,18.2175193 L58.9193603,18.2175193 C61.1872734,18.2175193 62.3216291,16.8486086 62.3216291,14.1100121 C62.3216291,12.7628055 62.0462225,11.7954213 61.4962077,11.2078594 C60.9453946,10.6187472 60.0864455,10.3249662 58.9193603,10.3249662 L55.2520626,10.3249662 L55.2520626,18.2175193 Z M58.9520898,22.0025651 L55.2520626,22.0025651 L55.2520626,28.3548998 L50.6930863,28.3548998 L50.6930863,6.53914529 L58.9520898,6.53914529 C64.2822044,6.53914529 66.9476609,9.06380107 66.9476609,14.1100121 C66.9476609,16.656372 66.2699213,18.6066434 64.9152404,19.964702 C63.5605594,21.3243109 61.5728426,22.0025651 58.9520898,22.0025651 L58.9520898,22.0025651 Z" id="Fill-4" fill="#35373A" sketch:type="MSShapeGroup"></path>
                    <path d="M79.5017293,12.3145376 L83.9281912,12.3145376 L83.9281912,28.3546672 L79.5352571,28.3546672 L79.5352571,27.455496 C77.949075,28.311259 76.5720422,28.7391405 75.4049571,28.7391405 C73.1138939,28.7391405 71.5724154,28.1244484 70.7797235,26.8942891 C69.9870316,25.664905 69.5902865,23.6053378 69.5902865,20.7186881 L69.5902865,12.3145376 L74.0167484,12.3145376 L74.0167484,20.7838005 C74.0167484,22.3658768 74.1492628,23.4448822 74.4134935,24.0231424 C74.6785224,24.6006273 75.3171463,24.8897574 76.3293652,24.8897574 C77.2984769,24.8897574 78.2133056,24.7409291 79.0722548,24.4401718 L79.5017293,24.3130476 L79.5017293,12.3145376 Z" id="Fill-6" fill="#35373A" sketch:type="MSShapeGroup"></path>
                    <path d="M91.9230438,28.3549773 L87.496582,28.3549773 L87.496582,12.3148477 L91.8895161,12.3148477 L91.8895161,13.2124686 C93.3870891,12.3567057 94.7641219,11.9288242 96.0198161,11.9288242 C98.2222702,11.9288242 99.7413968,12.5597943 100.579591,13.8225098 C101.416188,15.083675 101.834487,17.0308458 101.834487,19.6601465 L101.834487,28.3549773 L97.4072265,28.3549773 L97.4072265,19.788821 C97.4072265,18.4206855 97.2427808,17.4091178 96.9114947,16.7579938 C96.5810068,16.1053195 95.9208294,15.7782072 94.9301641,15.7782072 C94.0265113,15.7782072 93.1555879,15.9285859 92.3197889,16.2277929 L91.9230438,16.3564674 L91.9230438,28.3549773 Z" id="Fill-8" fill="#35373A" sketch:type="MSShapeGroup"></path>
                    <path d="M111.943583,11.9285141 C113.089115,11.9285141 114.553959,12.101372 116.338114,12.4416618 L117.229793,12.6354487 L117.098077,16.0360213 C115.357826,15.8647137 114.069403,15.7786723 113.232805,15.7786723 C111.712082,15.7786723 110.704653,16.0949325 110.208921,16.7251276 C109.713988,17.3560977 109.465723,18.5490499 109.465723,20.3024338 C109.465723,22.0550426 109.713988,23.2588468 110.208921,23.9115211 C110.704653,24.5641954 111.723258,24.8897574 113.265535,24.8897574 L117.098077,24.6339587 L117.229793,28.0655372 C114.872472,28.5151228 113.077939,28.7399156 111.844597,28.7399156 C109.399466,28.7399156 107.64325,28.0717384 106.575151,26.7338336 C105.506255,25.3982542 104.973004,23.2526456 104.973004,20.3024338 C104.973004,17.3498965 105.523019,15.2166903 106.624645,13.9028151 C107.725473,12.5873896 109.499251,11.9285141 111.943583,11.9285141" id="Fill-10" fill="#35373A" sketch:type="MSShapeGroup"></path>
                    <path d="M124.927685,28.3549773 L120.501223,28.3549773 L120.501223,5.89817572 L124.927685,5.89817572 L124.927685,13.0837941 C126.44761,12.3148477 127.813467,11.9288242 129.025256,11.9288242 C131.22771,11.9288242 132.746837,12.5597943 133.58503,13.8225098 C134.421628,15.083675 134.839926,17.0308458 134.839926,19.6601465 L134.839926,28.3549773 L130.412666,28.3549773 L130.412666,19.7570399 C130.412666,18.4098334 130.247422,17.4091178 129.916934,16.7579938 C129.586447,16.1053195 128.926269,15.7782072 127.935604,15.7782072 C127.075856,15.7782072 126.216907,15.9068817 125.357958,16.1626805 L124.927685,16.291355 L124.927685,28.3549773 Z" id="Fill-12" fill="#35373A" sketch:type="MSShapeGroup"></path>
                    <path d="M137.152144,8.367641 L137.152144,6.15459455 L153.670949,6.15459455 L153.670949,8.367641 L146.700369,8.367641 L146.700369,28.3548223 L144.188981,28.3548223 L144.188981,8.367641 L137.152144,8.367641 Z" id="Fill-14" fill="#35373A" sketch:type="MSShapeGroup"></path>
                    <path d="M158.957478,28.3549773 L156.479617,28.3549773 L156.479617,5.3199156 L158.957478,5.3199156 L158.957478,13.2124686 C160.719281,12.3993388 162.41403,11.9939366 164.044915,11.9939366 C166.246571,11.9939366 167.728977,12.5706464 168.488141,13.7256163 C169.248103,14.8805863 169.628085,16.9339523 169.628085,19.8841642 L169.628085,28.3549773 L167.151022,28.3549773 L167.151022,19.9492766 C167.151022,17.725378 166.923512,16.2006627 166.472484,15.3774559 C166.021456,14.5550243 165.069108,14.1418706 163.615441,14.1418706 C162.22803,14.1418706 160.883727,14.3883676 159.584127,14.8805863 L158.957478,15.104604 L158.957478,28.3549773 Z" id="Fill-16" fill="#35373A" sketch:type="MSShapeGroup"></path>
                    <path d="M174.21987,28.3549773 L174.21987,12.3148477 L176.665001,12.3148477 L176.665001,14.4961131 C178.580873,13.2124686 180.59653,12.3675577 182.711173,11.9606052 L182.711173,14.3992196 C181.786765,14.5705272 180.822443,14.8379532 179.820602,15.2014974 C178.817962,15.5650416 178.052412,15.8859528 177.523951,16.1626805 L176.697731,16.5812602 L176.697731,28.3549773 L174.21987,28.3549773 Z" id="Fill-18" fill="#35373A" sketch:type="MSShapeGroup"></path>
                    <path d="M187.137396,20.2537545 C187.137396,22.5954755 187.428768,24.2372381 188.013907,25.1790425 C188.596651,26.1185214 189.818818,26.5898111 191.680406,26.5898111 C193.540398,26.5898111 194.758573,26.1247226 195.33094,25.1937703 C195.904105,24.2643683 196.189889,22.6233808 196.189889,20.2700326 C196.189889,17.9174596 195.869779,16.2974011 195.232752,15.4090819 C194.593329,14.5215379 193.40948,14.0781535 191.680406,14.0781535 C189.951332,14.0781535 188.761895,14.5215379 188.112894,15.4090819 C187.462295,16.2974011 187.137396,17.9120336 187.137396,20.2537545 M184.593278,20.3025888 C184.593278,17.3725309 185.132915,15.2548276 186.212987,13.949479 C187.291464,12.6464558 189.114735,11.9937815 191.680406,11.9937815 C194.246876,11.9937815 196.063761,12.6464558 197.131859,13.949479 C198.19916,15.2548276 198.734007,17.3725309 198.734007,20.3025888 C198.734007,23.2318717 198.227898,25.360427 197.214082,26.6867046 C196.201065,28.0129822 194.351451,28.6741831 191.663642,28.6741831 C188.977431,28.6741831 187.12622,28.0129822 186.113202,26.6867046 C185.099387,25.360427 184.593278,23.2318717 184.593278,20.3025888" id="Fill-20" fill="#35373A" sketch:type="MSShapeGroup"></path>
                    <path d="M213.072151,12.3145376 L215.550012,12.3145376 L215.550012,28.3546672 L213.072151,28.3546672 L213.072151,27.2314783 C211.421308,28.1942117 209.790423,28.6740281 208.182687,28.6740281 C205.936328,28.6740281 204.443544,28.1081703 203.706732,26.9741293 C202.967525,25.8416387 202.599518,23.7464147 202.599518,20.686907 L202.599518,12.3145376 L205.07658,12.3145376 L205.07658,20.655126 C205.07658,22.98677 205.285729,24.5471422 205.704826,25.339343 C206.123125,26.1307687 207.070683,26.526094 208.545904,26.526094 C209.272339,26.526094 210.00995,26.4245497 210.760333,26.2199107 C211.508321,26.0175972 212.082284,25.8207097 212.478231,25.6284731 L213.072151,25.339343 L213.072151,12.3145376 Z" id="Fill-22" fill="#35373A" sketch:type="MSShapeGroup"></path>
                    <path d="M221.728459,17.4786486 C221.728459,18.741364 222.019831,19.638985 222.603373,20.1738368 C223.186118,20.7094638 224.149641,20.9761146 225.493945,20.9761146 C226.83745,20.9761146 227.795386,20.7094638 228.36855,20.1738368 C228.940917,19.638985 229.228298,18.7351628 229.228298,17.4631456 C229.228298,16.1903532 228.940917,15.2865311 228.36855,14.7516792 C227.795386,14.2176025 226.83745,13.9494015 225.493945,13.9494015 C224.149641,13.9494015 223.186118,14.2222534 222.603373,14.7687325 C222.019831,15.3136613 221.728459,16.2174834 221.728459,17.4786486 M221.496159,30.8561461 C221.496159,31.9901871 221.821857,32.7754116 222.470859,33.2149203 C223.120659,33.6521036 224.321272,33.8714703 226.071899,33.8714703 C227.823325,33.8714703 229.078221,33.6373758 229.838982,33.166086 C230.598146,32.6955714 230.978926,31.9095717 230.978926,30.8073118 C230.978926,29.7066022 230.702721,28.9950167 230.152706,28.6741056 C229.601893,28.3547448 228.52182,28.1942892 226.914085,28.1942892 L223.346572,28.0338336 C222.620137,28.5469814 222.129195,28.9950167 221.876939,29.3810402 C221.622287,29.7662886 221.496159,30.2577322 221.496159,30.8561461 M226.15492,35.8930553 C223.511816,35.8930553 221.666193,35.545014 220.621244,34.8512569 C219.573901,34.1551744 219.051028,32.887808 219.051028,31.049933 C219.051028,30.1716908 219.2498,29.4616556 219.645746,28.9151765 C220.04329,28.3702477 220.714643,27.7555556 221.661403,27.0711003 C221.044333,26.6656981 220.736995,25.9262073 220.736995,24.8580539 C220.736995,24.4945096 221.011603,23.8209064 221.563215,22.8364689 L221.859376,22.3233212 C220.119126,21.5528244 219.2498,19.9389671 219.2498,17.4786486 C219.2498,13.8222773 221.309362,11.993704 225.428486,11.993704 C226.485408,11.993704 227.464898,12.1006744 228.36855,12.3146151 L228.863484,12.4099583 L233.753746,12.2812838 L233.753746,14.335425 L230.615708,14.2703126 C231.342143,14.9756969 231.70536,16.0461758 231.70536,17.4786486 C231.70536,19.4893815 231.192066,20.8954992 230.16947,21.697777 C229.145277,22.4992797 227.531953,22.900031 225.328701,22.900031 C224.734781,22.900031 224.193547,22.8573979 223.709789,22.7729068 C223.313842,23.7131608 223.115869,24.323202 223.115869,24.6007049 C223.115869,25.2650064 223.323422,25.6750594 223.742519,25.835515 C224.160817,25.9959706 225.428486,26.0765859 227.542331,26.0765859 C229.656974,26.0765859 231.176899,26.397497 232.101307,27.0393193 C233.025715,27.6811415 233.488717,28.9314546 233.488717,30.792584 C233.488717,34.1931566 231.044385,35.8930553 226.15492,35.8930553" id="Fill-24" fill="#35373A" sketch:type="MSShapeGroup"></path>
                    <path d="M239.23761,28.3549773 L236.759749,28.3549773 L236.759749,5.3199156 L239.23761,5.3199156 L239.23761,13.2124686 C240.999413,12.3993388 242.695758,11.9939366 244.325047,11.9939366 C246.5283,11.9939366 248.009109,12.5706464 248.768273,13.7256163 C249.529832,14.8805863 249.908217,16.9339523 249.908217,19.8841642 L249.908217,28.3549773 L247.431154,28.3549773 L247.431154,19.9492766 C247.431154,17.725378 247.204443,16.2006627 246.754213,15.3774559 C246.302387,14.5550243 245.34924,14.1418706 243.896371,14.1418706 C242.508961,14.1418706 241.164657,14.3883676 239.865856,14.8805863 L239.23761,15.104604 L239.23761,28.3549773 Z" id="Fill-26" fill="#35373A" sketch:type="MSShapeGroup"></path>
                </g>
            </g>
        </g>
    </g>
</svg>